<svg width="1754" height="1754" xmlns="http://www.w3.org/2000/svg" xmlns:xlink="http://www.w3.org/1999/xlink" xml:space="preserve" overflow="hidden"><defs><clipPath id="clip0"><rect x="-221" y="-450" width="1754" height="1754"/></clipPath></defs><g clip-path="url(#clip0)" transform="translate(221 450)"><path d="M448.736 871.858C448.736 949.072 386.141 1011.67 308.927 1011.67 231.713 1011.67 169.119 949.072 169.119 871.858 169.119 794.644 231.713 732.05 308.927 732.05 386.141 732.05 448.736 794.644 448.736 871.858Z" fill="#5C4756" fill-rule="nonzero" fill-opacity="1"/><path d="M1094.12 40.8825C1089.86-42.0305 1065.27-113.926 1029.42-157.667L830.413-157.667C794.639-113.926 769.955-42.0305 765.625 40.8825L848.83 129.478 848.83 262.563 637.729 262.563 637.729 79.8542 692.542 79.8542 692.542 6.77085C692.542-33.5913 659.82-66.3125 619.458-66.3125L34.7917-66.3125C-5.57042-66.3125-38.2917-33.5913-38.2917 6.77085L-38.2917 79.8542 16.5208 79.8542 16.5208 353.917C-23.8413 353.917-56.5625 386.638-56.5625 427L-56.5625 774.146C-56.5625 814.508-23.8413 847.229 16.5208 847.229L97.5155 847.229C111.005 730.51 216.561 646.826 333.28 660.317 431.428 671.659 508.849 749.082 520.193 847.229L737.068 847.229C749.58 730.402 854.429 645.835 971.258 658.347 1088.09 670.859 1172.65 775.708 1160.14 892.537 1159.8 895.715 1159.39 898.883 1158.9 902.042L1350.29 902.042C1370.47 902.049 1386.84 885.695 1386.85 865.515 1386.85 859.624 1385.43 853.821 1382.7 848.599L1254.39 602.638C1269.42 566.882 1277.18 528.491 1277.21 489.706 1277.88 401.085 1237.38 317.172 1167.58 262.563L1011.37 262.563 1011.37 129.478ZM473.292 353.917 180.958 353.917 180.958 152.938 473.292 152.938Z" fill="#5C4756" fill-rule="nonzero" fill-opacity="1"/><path d="M1088.21 871.858C1088.21 949.072 1025.62 1011.67 948.406 1011.67 871.192 1011.67 808.598 949.072 808.598 871.858 808.598 794.644 871.192 732.05 948.406 732.05 1025.62 732.05 1088.21 794.644 1088.21 871.858Z" fill="#5C4756" fill-rule="nonzero" fill-opacity="1"/></g></svg>