<svg width="530" height="529" xmlns="http://www.w3.org/2000/svg" xmlns:xlink="http://www.w3.org/1999/xlink" xml:space="preserve" overflow="hidden"><defs><clipPath id="clip0"><rect x="348" y="120" width="530" height="529"/></clipPath><clipPath id="clip1"><rect x="349" y="120" width="529" height="529"/></clipPath><clipPath id="clip2"><rect x="349" y="120" width="529" height="529"/></clipPath><clipPath id="clip3"><rect x="349" y="120" width="529" height="529"/></clipPath></defs><g clip-path="url(#clip0)" transform="translate(-348 -120)"><g clip-path="url(#clip1)"><g clip-path="url(#clip2)"><g clip-path="url(#clip3)"><path d="M550.99 518.668C550.99 541.955 532.112 560.833 508.824 560.833 485.537 560.833 466.658 541.955 466.658 518.668 466.658 495.38 485.537 476.502 508.824 476.502 532.112 476.502 550.99 495.38 550.99 518.668Z" fill="#5C4756" fill-rule="nonzero" fill-opacity="1"/><path d="M745.634 268.048C744.35 243.042 736.933 221.359 726.122 208.167L666.102 208.167C655.313 221.359 647.868 243.042 646.562 268.048L671.657 294.768 671.657 334.906 607.99 334.906 607.99 279.802 624.521 279.802 624.521 257.76C624.521 245.587 614.652 235.719 602.479 235.719L426.146 235.719C413.973 235.719 404.104 245.587 404.104 257.76L404.104 279.802 420.635 279.802 420.635 362.458C408.462 362.458 398.594 372.327 398.594 384.5L398.594 489.198C398.594 501.371 408.462 511.24 420.635 511.24L445.063 511.24C449.131 476.037 480.967 450.799 516.169 454.867 545.77 458.288 569.12 481.639 572.541 511.24L637.95 511.24C641.723 476.005 673.345 450.5 708.581 454.273 743.815 458.047 769.32 489.669 765.547 524.904 765.444 525.863 765.32 526.818 765.174 527.771L822.896 527.771C828.983 527.773 833.918 522.841 833.921 516.754 833.922 514.978 833.493 513.228 832.671 511.653L793.972 437.472C798.505 426.688 800.844 415.109 800.854 403.412 801.057 376.684 788.843 351.376 767.792 334.906L720.678 334.906 720.678 294.768ZM558.396 362.458 470.229 362.458 470.229 301.844 558.396 301.844Z" fill="#5C4756" fill-rule="nonzero" fill-opacity="1"/><path d="M743.854 518.668C743.854 541.955 724.976 560.833 701.689 560.833 678.401 560.833 659.523 541.955 659.523 518.668 659.523 495.38 678.401 476.502 701.689 476.502 724.976 476.502 743.854 495.38 743.854 518.668Z" fill="#5C4756" fill-rule="nonzero" fill-opacity="1"/></g></g></g></g></svg>