<svg width="1154" height="1153" xmlns="http://www.w3.org/2000/svg" xmlns:xlink="http://www.w3.org/1999/xlink" xml:space="preserve" overflow="hidden"><defs><clipPath id="clip0"><rect x="26" y="-228" width="1154" height="1153"/></clipPath><clipPath id="clip1"><rect x="27" y="-228" width="1153" height="1153"/></clipPath><clipPath id="clip2"><rect x="27" y="-228" width="1153" height="1153"/></clipPath><clipPath id="clip3"><rect x="27" y="-228" width="1153" height="1153"/></clipPath></defs><g clip-path="url(#clip0)" transform="translate(-26 228)"><g clip-path="url(#clip1)"><g clip-path="url(#clip2)"><g clip-path="url(#clip3)"><path d="M467.254 640.93C467.254 691.687 426.107 732.833 375.35 732.833 324.593 732.833 283.446 691.687 283.446 640.93 283.446 590.173 324.593 549.026 375.35 549.026 426.107 549.026 467.254 590.173 467.254 640.93Z" fill="#FFFFFF" fill-rule="nonzero" fill-opacity="1"/><path d="M891.498 94.6839C888.699 40.1806 872.533-7.0804 848.969-35.8333L718.151-35.8333C694.635-7.0804 678.409 40.1806 675.562 94.6839L730.258 152.922 730.258 240.406 591.49 240.406 591.49 120.302 627.521 120.302 627.521 72.2604C627.521 45.7282 606.011 24.2188 579.479 24.2188L195.146 24.2188C168.614 24.2188 147.104 45.7282 147.104 72.2604L147.104 120.302 183.135 120.302 183.135 300.458C156.603 300.458 135.094 321.968 135.094 348.5L135.094 576.698C135.094 603.23 156.603 624.74 183.135 624.74L236.378 624.74C245.245 548.013 314.633 493.003 391.359 501.872 455.876 509.328 506.769 560.222 514.227 624.74L656.79 624.74C665.015 547.943 733.938 492.352 810.736 500.577 887.533 508.802 943.123 577.725 934.899 654.523 934.675 656.612 934.404 658.694 934.087 660.771L1059.9 660.771C1073.16 660.776 1083.92 650.025 1083.93 636.76 1083.93 632.887 1082.99 629.073 1081.2 625.64L996.853 463.956C1006.73 440.452 1011.83 415.215 1011.85 389.72 1012.3 331.464 985.675 276.304 939.792 240.406L837.103 240.406 837.103 152.922ZM483.396 300.458 291.229 300.458 291.229 168.344 483.396 168.344Z" fill="#FFFFFF" fill-rule="nonzero" fill-opacity="1"/><path d="M887.618 640.93C887.618 691.687 846.472 732.833 795.715 732.833 744.958 732.833 703.811 691.687 703.811 640.93 703.811 590.173 744.958 549.026 795.715 549.026 846.472 549.026 887.618 590.173 887.618 640.93Z" fill="#FFFFFF" fill-rule="nonzero" fill-opacity="1"/></g></g></g></g></svg>